<svg width="128" height="128" viewBox="0 0 128 128" fill="none" xmlns="http://www.w3.org/2000/svg">
  <rect width="128" height="128" rx="28" fill="#F5E7D8"/>
  <path d="M40 92C40 75.4315 53.4315 62 70 62H78C94.5685 62 108 75.4315 108 92V96C108 98.2091 106.209 100 104 100H40C37.7909 100 36 98.2091 36 96V92Z" fill="#8C5E31"/>
  <path d="M60 38C60 30.268 66.268 24 74 24H86C93.732 24 100 30.268 100 38V54C100 61.732 93.732 68 86 68H74C66.268 68 60 61.732 60 54V38Z" fill="#A67850"/>
  <path d="M44 40C44 30.0589 52.059 22 62 22H74C83.9411 22 92 30.0589 92 40V50C92 59.9411 83.9411 68 74 68H62C52.059 68 44 59.9411 44 50V40Z" fill="#D9C2AA"/>
</svg>
